<svg filter="url(#colors7834731196)" x="0" y="0" width="60" height="40.480640133855985" filtersec="colorsf8802029010" class="image-svg-svg primary" style="overflow: visible;"><svg xmlns="http://www.w3.org/2000/svg" viewBox="-0.03333000000000008 0.2999999999999998 81.51855 56.3"><path d="M78.6 50.3c-1.8 3.2-5.9 4.3-9.1 2.5-4.6-2.7-6.1-11.2-6.1-11.2m15.2 8.7c1.8-3.2.8-7.3-2.5-9.1-4.6-2.7-12.7.4-12.7.4M18.1 15.4S16.6 6.8 12 4.2c-3.2-1.9-7.3-.8-9.1 2.4m0 0c-1.9 3.2-.8 7.3 2.4 9.2 4.6 2.7 12.7-.4 12.7-.4m45.4 0s8.1 3 12.7.4c3.2-1.8 4.3-5.9 2.5-9.1m0-.1c-1.8-3.2-5.9-4.3-9.1-2.5-4.6 2.7-6.1 11.2-6.1 11.2M18.1 41.5s-8.1-3-12.7-.4c-3.3 1.9-4.4 6-2.5 9.2m0 0c1.8 3.2 5.9 4.3 9.1 2.5 4.6-2.7 6.1-11.2 6.1-11.2m0-.1l22.6 13.1 22.6-13.1V15.4L40.7 2.3 18.1 15.4v26.1z" fill="none" stroke="#333" stroke-width="4" stroke-miterlimit="10"></path></svg></svg>